<mxfile host="app.diagrams.net" modified="2020-08-28T14:38:04.359Z" agent="5.0 (Windows NT 10.0; Win64; x64) AppleWebKit/537.36 (KHTML, like Gecko) Chrome/84.0.4147.135 Safari/537.36" etag="DTRgEnegNvDFGHaB93jr" version="13.6.5" type="github" pages="2">
  <diagram id="prtHgNgQTEPvFCAcTncT" name="Page-1">
    <mxGraphModel dx="868" dy="482" grid="1" gridSize="10" guides="1" tooltips="1" connect="1" arrows="1" fold="1" page="1" pageScale="1" pageWidth="827" pageHeight="1169" math="0" shadow="0">
      <root>
        <mxCell id="0" />
        <mxCell id="1" parent="0" />
        <mxCell id="dNxyNK7c78bLwvsdeMH5-19" value="Pool" style="swimlane;html=1;childLayout=stackLayout;resizeParent=1;resizeParentMax=0;horizontal=0;startSize=20;horizontalStack=0;" parent="1" vertex="1">
          <mxGeometry x="120" y="120" width="450" height="360" as="geometry" />
        </mxCell>
        <mxCell id="dNxyNK7c78bLwvsdeMH5-27" value="" style="edgeStyle=orthogonalEdgeStyle;rounded=0;orthogonalLoop=1;jettySize=auto;html=1;dashed=1;endArrow=none;endFill=0;" parent="dNxyNK7c78bLwvsdeMH5-19" source="dNxyNK7c78bLwvsdeMH5-24" target="dNxyNK7c78bLwvsdeMH5-26" edge="1">
          <mxGeometry relative="1" as="geometry" />
        </mxCell>
        <mxCell id="dNxyNK7c78bLwvsdeMH5-31" style="edgeStyle=orthogonalEdgeStyle;rounded=0;orthogonalLoop=1;jettySize=auto;html=1;endArrow=classic;endFill=1;" parent="dNxyNK7c78bLwvsdeMH5-19" source="dNxyNK7c78bLwvsdeMH5-28" target="dNxyNK7c78bLwvsdeMH5-30" edge="1">
          <mxGeometry relative="1" as="geometry" />
        </mxCell>
        <mxCell id="dNxyNK7c78bLwvsdeMH5-35" style="edgeStyle=orthogonalEdgeStyle;rounded=0;orthogonalLoop=1;jettySize=auto;html=1;endArrow=classic;endFill=1;" parent="dNxyNK7c78bLwvsdeMH5-19" source="dNxyNK7c78bLwvsdeMH5-28" target="dNxyNK7c78bLwvsdeMH5-34" edge="1">
          <mxGeometry relative="1" as="geometry" />
        </mxCell>
        <mxCell id="dNxyNK7c78bLwvsdeMH5-38" style="edgeStyle=orthogonalEdgeStyle;rounded=0;orthogonalLoop=1;jettySize=auto;html=1;endArrow=classic;endFill=1;" parent="dNxyNK7c78bLwvsdeMH5-19" source="dNxyNK7c78bLwvsdeMH5-26" target="dNxyNK7c78bLwvsdeMH5-36" edge="1">
          <mxGeometry relative="1" as="geometry">
            <Array as="points">
              <mxPoint x="180" y="340" />
              <mxPoint x="400" y="340" />
            </Array>
          </mxGeometry>
        </mxCell>
        <mxCell id="dNxyNK7c78bLwvsdeMH5-20" value="Lane 1" style="swimlane;html=1;startSize=20;horizontal=0;" parent="dNxyNK7c78bLwvsdeMH5-19" vertex="1">
          <mxGeometry x="20" width="430" height="120" as="geometry" />
        </mxCell>
        <mxCell id="dNxyNK7c78bLwvsdeMH5-25" value="" style="edgeStyle=orthogonalEdgeStyle;rounded=0;orthogonalLoop=1;jettySize=auto;html=1;" parent="dNxyNK7c78bLwvsdeMH5-20" source="dNxyNK7c78bLwvsdeMH5-23" target="dNxyNK7c78bLwvsdeMH5-24" edge="1">
          <mxGeometry relative="1" as="geometry" />
        </mxCell>
        <mxCell id="dNxyNK7c78bLwvsdeMH5-23" value="" style="ellipse;whiteSpace=wrap;html=1;" parent="dNxyNK7c78bLwvsdeMH5-20" vertex="1">
          <mxGeometry x="40" y="40" width="40" height="40" as="geometry" />
        </mxCell>
        <mxCell id="dNxyNK7c78bLwvsdeMH5-24" value="" style="rounded=0;whiteSpace=wrap;html=1;fontFamily=Helvetica;fontSize=12;fontColor=#000000;align=center;" parent="dNxyNK7c78bLwvsdeMH5-20" vertex="1">
          <mxGeometry x="120" y="30" width="80" height="60" as="geometry" />
        </mxCell>
        <mxCell id="dNxyNK7c78bLwvsdeMH5-33" value="" style="edgeStyle=orthogonalEdgeStyle;rounded=0;orthogonalLoop=1;jettySize=auto;html=1;endArrow=classic;endFill=1;" parent="dNxyNK7c78bLwvsdeMH5-20" source="dNxyNK7c78bLwvsdeMH5-30" target="dNxyNK7c78bLwvsdeMH5-32" edge="1">
          <mxGeometry relative="1" as="geometry" />
        </mxCell>
        <mxCell id="dNxyNK7c78bLwvsdeMH5-30" value="" style="rounded=0;whiteSpace=wrap;html=1;fontFamily=Helvetica;fontSize=12;fontColor=#000000;align=center;" parent="dNxyNK7c78bLwvsdeMH5-20" vertex="1">
          <mxGeometry x="240" y="30" width="80" height="60" as="geometry" />
        </mxCell>
        <mxCell id="dNxyNK7c78bLwvsdeMH5-32" value="" style="ellipse;whiteSpace=wrap;html=1;" parent="dNxyNK7c78bLwvsdeMH5-20" vertex="1">
          <mxGeometry x="360" y="40" width="40" height="40" as="geometry" />
        </mxCell>
        <mxCell id="dNxyNK7c78bLwvsdeMH5-21" value="Lane 2" style="swimlane;html=1;startSize=20;horizontal=0;" parent="dNxyNK7c78bLwvsdeMH5-19" vertex="1">
          <mxGeometry x="20" y="120" width="430" height="120" as="geometry" />
        </mxCell>
        <mxCell id="dNxyNK7c78bLwvsdeMH5-29" value="" style="edgeStyle=orthogonalEdgeStyle;rounded=0;orthogonalLoop=1;jettySize=auto;html=1;endArrow=classic;endFill=1;" parent="dNxyNK7c78bLwvsdeMH5-21" source="dNxyNK7c78bLwvsdeMH5-26" target="dNxyNK7c78bLwvsdeMH5-28" edge="1">
          <mxGeometry relative="1" as="geometry" />
        </mxCell>
        <mxCell id="dNxyNK7c78bLwvsdeMH5-26" value="" style="rounded=0;whiteSpace=wrap;html=1;fontFamily=Helvetica;fontSize=12;fontColor=#000000;align=center;" parent="dNxyNK7c78bLwvsdeMH5-21" vertex="1">
          <mxGeometry x="120" y="30" width="80" height="60" as="geometry" />
        </mxCell>
        <mxCell id="dNxyNK7c78bLwvsdeMH5-28" value="" style="rhombus;whiteSpace=wrap;html=1;fontFamily=Helvetica;fontSize=12;fontColor=#000000;align=center;" parent="dNxyNK7c78bLwvsdeMH5-21" vertex="1">
          <mxGeometry x="260" y="40" width="40" height="40" as="geometry" />
        </mxCell>
        <mxCell id="dNxyNK7c78bLwvsdeMH5-22" value="Lane 3" style="swimlane;html=1;startSize=20;horizontal=0;" parent="dNxyNK7c78bLwvsdeMH5-19" vertex="1">
          <mxGeometry x="20" y="240" width="430" height="120" as="geometry" />
        </mxCell>
        <mxCell id="dNxyNK7c78bLwvsdeMH5-37" value="" style="edgeStyle=orthogonalEdgeStyle;rounded=0;orthogonalLoop=1;jettySize=auto;html=1;endArrow=classic;endFill=1;" parent="dNxyNK7c78bLwvsdeMH5-22" source="dNxyNK7c78bLwvsdeMH5-34" target="dNxyNK7c78bLwvsdeMH5-36" edge="1">
          <mxGeometry relative="1" as="geometry" />
        </mxCell>
        <mxCell id="dNxyNK7c78bLwvsdeMH5-34" value="" style="rounded=0;whiteSpace=wrap;html=1;fontFamily=Helvetica;fontSize=12;fontColor=#000000;align=center;" parent="dNxyNK7c78bLwvsdeMH5-22" vertex="1">
          <mxGeometry x="240" y="20" width="80" height="60" as="geometry" />
        </mxCell>
        <mxCell id="dNxyNK7c78bLwvsdeMH5-36" value="" style="rhombus;whiteSpace=wrap;html=1;fontFamily=Helvetica;fontSize=12;fontColor=#000000;align=center;" parent="dNxyNK7c78bLwvsdeMH5-22" vertex="1">
          <mxGeometry x="360" y="30" width="40" height="40" as="geometry" />
        </mxCell>
      </root>
    </mxGraphModel>
  </diagram>
  <diagram id="1iE5lkm600msEkCXkLp3" name="Page-2">
    <mxGraphModel dx="868" dy="482" grid="1" gridSize="10" guides="1" tooltips="1" connect="1" arrows="1" fold="1" page="1" pageScale="1" pageWidth="1100" pageHeight="850" math="0" shadow="0">
      <root>
        <mxCell id="0Q_BS8HOfJfb4gfiabzy-0" />
        <mxCell id="0Q_BS8HOfJfb4gfiabzy-1" parent="0Q_BS8HOfJfb4gfiabzy-0" />
        <mxCell id="ENLPCP66zjwNbyTNSyPy-1" value="Add Shelf" style="swimlane;html=1;childLayout=stackLayout;resizeParent=1;resizeParentMax=0;startSize=20;" vertex="1" parent="0Q_BS8HOfJfb4gfiabzy-1">
          <mxGeometry x="220" y="50" width="360" height="730" as="geometry" />
        </mxCell>
        <mxCell id="ENLPCP66zjwNbyTNSyPy-2" value="User" style="swimlane;html=1;startSize=20;" vertex="1" parent="ENLPCP66zjwNbyTNSyPy-1">
          <mxGeometry y="20" width="120" height="710" as="geometry" />
        </mxCell>
        <mxCell id="ENLPCP66zjwNbyTNSyPy-23" value="" style="strokeWidth=2;html=1;shape=mxgraph.flowchart.terminator;whiteSpace=wrap;" vertex="1" parent="ENLPCP66zjwNbyTNSyPy-2">
          <mxGeometry x="20" y="650" width="60" height="30" as="geometry" />
        </mxCell>
        <mxCell id="ENLPCP66zjwNbyTNSyPy-5" value="" style="strokeWidth=2;html=1;shape=mxgraph.flowchart.start_2;whiteSpace=wrap;" vertex="1" parent="ENLPCP66zjwNbyTNSyPy-2">
          <mxGeometry x="40" y="40" width="40" height="40" as="geometry" />
        </mxCell>
        <mxCell id="ENLPCP66zjwNbyTNSyPy-7" value="" style="edgeStyle=orthogonalEdgeStyle;rounded=0;orthogonalLoop=1;jettySize=auto;html=1;" edge="1" parent="ENLPCP66zjwNbyTNSyPy-2" source="ENLPCP66zjwNbyTNSyPy-5" target="ENLPCP66zjwNbyTNSyPy-6">
          <mxGeometry relative="1" as="geometry" />
        </mxCell>
        <mxCell id="ENLPCP66zjwNbyTNSyPy-6" value="Add shelf in Rack" style="whiteSpace=wrap;html=1;strokeWidth=2;" vertex="1" parent="ENLPCP66zjwNbyTNSyPy-2">
          <mxGeometry x="10" y="110" width="100" height="30" as="geometry" />
        </mxCell>
        <mxCell id="ENLPCP66zjwNbyTNSyPy-10" value="Submit the changes" style="whiteSpace=wrap;html=1;strokeWidth=2;" vertex="1" parent="ENLPCP66zjwNbyTNSyPy-2">
          <mxGeometry x="10" y="180" width="100" height="30" as="geometry" />
        </mxCell>
        <mxCell id="Fn_JaLxescvzF4Shma0L-14" style="edgeStyle=orthogonalEdgeStyle;rounded=0;orthogonalLoop=1;jettySize=auto;html=1;exitX=0.5;exitY=1;exitDx=0;exitDy=0;exitPerimeter=0;" edge="1" parent="ENLPCP66zjwNbyTNSyPy-2" source="ENLPCP66zjwNbyTNSyPy-23" target="ENLPCP66zjwNbyTNSyPy-23">
          <mxGeometry relative="1" as="geometry" />
        </mxCell>
        <mxCell id="Fn_JaLxescvzF4Shma0L-0" style="edgeStyle=orthogonalEdgeStyle;rounded=0;orthogonalLoop=1;jettySize=auto;html=1;entryX=0.5;entryY=0;entryDx=0;entryDy=0;entryPerimeter=0;" edge="1" parent="ENLPCP66zjwNbyTNSyPy-1" source="ENLPCP66zjwNbyTNSyPy-21" target="ENLPCP66zjwNbyTNSyPy-23">
          <mxGeometry relative="1" as="geometry">
            <mxPoint x="90" y="580" as="targetPoint" />
          </mxGeometry>
        </mxCell>
        <mxCell id="ENLPCP66zjwNbyTNSyPy-3" value="GEOS" style="swimlane;html=1;startSize=20;" vertex="1" parent="ENLPCP66zjwNbyTNSyPy-1">
          <mxGeometry x="120" y="20" width="120" height="710" as="geometry" />
        </mxCell>
        <mxCell id="Fn_JaLxescvzF4Shma0L-1" style="edgeStyle=orthogonalEdgeStyle;rounded=0;orthogonalLoop=1;jettySize=auto;html=1;entryX=0.5;entryY=0;entryDx=0;entryDy=0;" edge="1" parent="ENLPCP66zjwNbyTNSyPy-3" source="ENLPCP66zjwNbyTNSyPy-18" target="ENLPCP66zjwNbyTNSyPy-21">
          <mxGeometry relative="1" as="geometry" />
        </mxCell>
        <mxCell id="ENLPCP66zjwNbyTNSyPy-18" value="Rollback the changes" style="whiteSpace=wrap;html=1;strokeWidth=2;" vertex="1" parent="ENLPCP66zjwNbyTNSyPy-3">
          <mxGeometry x="10" y="490" width="100" height="30" as="geometry" />
        </mxCell>
        <mxCell id="ENLPCP66zjwNbyTNSyPy-21" value="Display error on the screen" style="whiteSpace=wrap;html=1;strokeWidth=2;" vertex="1" parent="ENLPCP66zjwNbyTNSyPy-3">
          <mxGeometry x="10" y="545" width="100" height="30" as="geometry" />
        </mxCell>
        <mxCell id="ENLPCP66zjwNbyTNSyPy-8" value="Shelf Added in Rack" style="whiteSpace=wrap;html=1;strokeWidth=2;" vertex="1" parent="ENLPCP66zjwNbyTNSyPy-3">
          <mxGeometry x="10" y="110" width="100" height="30" as="geometry" />
        </mxCell>
        <mxCell id="ENLPCP66zjwNbyTNSyPy-12" value="Send add shelf request to NIM" style="whiteSpace=wrap;html=1;strokeWidth=2;" vertex="1" parent="ENLPCP66zjwNbyTNSyPy-3">
          <mxGeometry x="10" y="180" width="100" height="30" as="geometry" />
        </mxCell>
        <mxCell id="Fn_JaLxescvzF4Shma0L-17" value="Save the racks shelfs" style="whiteSpace=wrap;html=1;strokeWidth=2;" vertex="1" parent="ENLPCP66zjwNbyTNSyPy-3">
          <mxGeometry x="10" y="650" width="100" height="30" as="geometry" />
        </mxCell>
        <mxCell id="ENLPCP66zjwNbyTNSyPy-4" value="NIM-C4" style="swimlane;html=1;startSize=20;" vertex="1" parent="ENLPCP66zjwNbyTNSyPy-1">
          <mxGeometry x="240" y="20" width="120" height="710" as="geometry" />
        </mxCell>
        <mxCell id="ENLPCP66zjwNbyTNSyPy-17" style="edgeStyle=orthogonalEdgeStyle;rounded=0;orthogonalLoop=1;jettySize=auto;html=1;entryX=0.5;entryY=0;entryDx=0;entryDy=0;entryPerimeter=0;" edge="1" parent="ENLPCP66zjwNbyTNSyPy-4" source="ENLPCP66zjwNbyTNSyPy-14" target="ENLPCP66zjwNbyTNSyPy-16">
          <mxGeometry relative="1" as="geometry" />
        </mxCell>
        <mxCell id="ENLPCP66zjwNbyTNSyPy-14" value="Validate the request xml" style="whiteSpace=wrap;html=1;strokeWidth=2;" vertex="1" parent="ENLPCP66zjwNbyTNSyPy-4">
          <mxGeometry x="10" y="180" width="100" height="30" as="geometry" />
        </mxCell>
        <mxCell id="Fn_JaLxescvzF4Shma0L-3" value="success" style="edgeStyle=orthogonalEdgeStyle;rounded=0;orthogonalLoop=1;jettySize=auto;html=1;entryX=0.5;entryY=0;entryDx=0;entryDy=0;" edge="1" parent="ENLPCP66zjwNbyTNSyPy-4" source="ENLPCP66zjwNbyTNSyPy-16" target="Fn_JaLxescvzF4Shma0L-2">
          <mxGeometry relative="1" as="geometry" />
        </mxCell>
        <mxCell id="ENLPCP66zjwNbyTNSyPy-16" value="status" style="strokeWidth=2;html=1;shape=mxgraph.flowchart.decision;whiteSpace=wrap;" vertex="1" parent="ENLPCP66zjwNbyTNSyPy-4">
          <mxGeometry x="40" y="240" width="40" height="40" as="geometry" />
        </mxCell>
        <mxCell id="Fn_JaLxescvzF4Shma0L-6" style="edgeStyle=orthogonalEdgeStyle;rounded=0;orthogonalLoop=1;jettySize=auto;html=1;entryX=0.5;entryY=0;entryDx=0;entryDy=0;entryPerimeter=0;" edge="1" parent="ENLPCP66zjwNbyTNSyPy-4" source="Fn_JaLxescvzF4Shma0L-2">
          <mxGeometry relative="1" as="geometry">
            <mxPoint x="60" y="410" as="targetPoint" />
          </mxGeometry>
        </mxCell>
        <mxCell id="Fn_JaLxescvzF4Shma0L-2" value="Determine number of&amp;nbsp; dummy shelfs to create" style="whiteSpace=wrap;html=1;strokeWidth=2;" vertex="1" parent="ENLPCP66zjwNbyTNSyPy-4">
          <mxGeometry x="5" y="320" width="110" height="50" as="geometry" />
        </mxCell>
        <mxCell id="Fn_JaLxescvzF4Shma0L-9" style="edgeStyle=orthogonalEdgeStyle;rounded=0;orthogonalLoop=1;jettySize=auto;html=1;entryX=0.5;entryY=0;entryDx=0;entryDy=0;entryPerimeter=0;" edge="1" parent="ENLPCP66zjwNbyTNSyPy-4" source="Fn_JaLxescvzF4Shma0L-7" target="Fn_JaLxescvzF4Shma0L-8">
          <mxGeometry relative="1" as="geometry" />
        </mxCell>
        <mxCell id="Fn_JaLxescvzF4Shma0L-7" value="Check if the positions are free or not" style="whiteSpace=wrap;html=1;strokeWidth=2;" vertex="1" parent="ENLPCP66zjwNbyTNSyPy-4">
          <mxGeometry x="5" y="410" width="110" height="50" as="geometry" />
        </mxCell>
        <mxCell id="Fn_JaLxescvzF4Shma0L-13" value="Positions are free" style="edgeStyle=orthogonalEdgeStyle;rounded=0;orthogonalLoop=1;jettySize=auto;html=1;entryX=0.5;entryY=0;entryDx=0;entryDy=0;" edge="1" parent="ENLPCP66zjwNbyTNSyPy-4" source="Fn_JaLxescvzF4Shma0L-8" target="Fn_JaLxescvzF4Shma0L-12">
          <mxGeometry relative="1" as="geometry" />
        </mxCell>
        <mxCell id="Fn_JaLxescvzF4Shma0L-8" value="" style="strokeWidth=2;html=1;shape=mxgraph.flowchart.decision;whiteSpace=wrap;" vertex="1" parent="ENLPCP66zjwNbyTNSyPy-4">
          <mxGeometry x="40" y="490" width="40" height="40" as="geometry" />
        </mxCell>
        <mxCell id="Fn_JaLxescvzF4Shma0L-16" style="edgeStyle=orthogonalEdgeStyle;rounded=0;orthogonalLoop=1;jettySize=auto;html=1;entryX=0.445;entryY=0.033;entryDx=0;entryDy=0;entryPerimeter=0;" edge="1" parent="ENLPCP66zjwNbyTNSyPy-4" source="Fn_JaLxescvzF4Shma0L-12" target="Fn_JaLxescvzF4Shma0L-15">
          <mxGeometry relative="1" as="geometry" />
        </mxCell>
        <mxCell id="Fn_JaLxescvzF4Shma0L-12" value="Add dummy shelfs" style="whiteSpace=wrap;html=1;strokeWidth=2;" vertex="1" parent="ENLPCP66zjwNbyTNSyPy-4">
          <mxGeometry x="5" y="590" width="110" height="30" as="geometry" />
        </mxCell>
        <mxCell id="Fn_JaLxescvzF4Shma0L-15" value="Send success response" style="whiteSpace=wrap;html=1;strokeWidth=2;" vertex="1" parent="ENLPCP66zjwNbyTNSyPy-4">
          <mxGeometry x="11" y="650" width="110" height="30" as="geometry" />
        </mxCell>
        <mxCell id="ENLPCP66zjwNbyTNSyPy-9" style="edgeStyle=orthogonalEdgeStyle;rounded=0;orthogonalLoop=1;jettySize=auto;html=1;" edge="1" parent="ENLPCP66zjwNbyTNSyPy-1" source="ENLPCP66zjwNbyTNSyPy-6">
          <mxGeometry relative="1" as="geometry">
            <mxPoint x="130" y="145" as="targetPoint" />
          </mxGeometry>
        </mxCell>
        <mxCell id="ENLPCP66zjwNbyTNSyPy-11" style="edgeStyle=orthogonalEdgeStyle;rounded=0;orthogonalLoop=1;jettySize=auto;html=1;exitX=0.5;exitY=1;exitDx=0;exitDy=0;" edge="1" parent="ENLPCP66zjwNbyTNSyPy-1" source="ENLPCP66zjwNbyTNSyPy-8" target="ENLPCP66zjwNbyTNSyPy-10">
          <mxGeometry relative="1" as="geometry" />
        </mxCell>
        <mxCell id="ENLPCP66zjwNbyTNSyPy-13" style="edgeStyle=orthogonalEdgeStyle;rounded=0;orthogonalLoop=1;jettySize=auto;html=1;" edge="1" parent="ENLPCP66zjwNbyTNSyPy-1" source="ENLPCP66zjwNbyTNSyPy-10" target="ENLPCP66zjwNbyTNSyPy-12">
          <mxGeometry relative="1" as="geometry" />
        </mxCell>
        <mxCell id="ENLPCP66zjwNbyTNSyPy-15" style="edgeStyle=orthogonalEdgeStyle;rounded=0;orthogonalLoop=1;jettySize=auto;html=1;" edge="1" parent="ENLPCP66zjwNbyTNSyPy-1" source="ENLPCP66zjwNbyTNSyPy-12">
          <mxGeometry relative="1" as="geometry">
            <mxPoint x="250" y="215" as="targetPoint" />
          </mxGeometry>
        </mxCell>
        <mxCell id="ENLPCP66zjwNbyTNSyPy-19" value="error" style="edgeStyle=orthogonalEdgeStyle;rounded=0;orthogonalLoop=1;jettySize=auto;html=1;entryX=0.5;entryY=0;entryDx=0;entryDy=0;" edge="1" parent="ENLPCP66zjwNbyTNSyPy-1" source="ENLPCP66zjwNbyTNSyPy-16" target="ENLPCP66zjwNbyTNSyPy-18">
          <mxGeometry relative="1" as="geometry">
            <mxPoint x="180" y="580" as="targetPoint" />
            <Array as="points">
              <mxPoint x="180" y="280" />
            </Array>
          </mxGeometry>
        </mxCell>
        <mxCell id="Fn_JaLxescvzF4Shma0L-11" value="Positions &lt;br&gt;not free" style="edgeStyle=orthogonalEdgeStyle;rounded=0;orthogonalLoop=1;jettySize=auto;html=1;" edge="1" parent="ENLPCP66zjwNbyTNSyPy-1" source="Fn_JaLxescvzF4Shma0L-8" target="ENLPCP66zjwNbyTNSyPy-18">
          <mxGeometry relative="1" as="geometry" />
        </mxCell>
        <mxCell id="Fn_JaLxescvzF4Shma0L-18" style="edgeStyle=orthogonalEdgeStyle;rounded=0;orthogonalLoop=1;jettySize=auto;html=1;entryX=1;entryY=0.5;entryDx=0;entryDy=0;entryPerimeter=0;" edge="1" parent="ENLPCP66zjwNbyTNSyPy-1" source="Fn_JaLxescvzF4Shma0L-17" target="ENLPCP66zjwNbyTNSyPy-23">
          <mxGeometry relative="1" as="geometry" />
        </mxCell>
      </root>
    </mxGraphModel>
  </diagram>
</mxfile>
